<svg width="110" height="110" viewBox="0 0 110 110" fill="none" xmlns="http://www.w3.org/2000/svg">
<path d="M55.0007 100.833H22.9173C21.7017 100.833 20.536 100.35 19.6764 99.4907C18.8169 98.6312 18.334 97.4654 18.334 96.2498V13.7498C18.334 12.5343 18.8169 11.3685 19.6764 10.5089C20.536 9.64939 21.7017 9.1665 22.9173 9.1665H87.084C88.2996 9.1665 89.4654 9.64939 90.3249 10.5089C91.1844 11.3685 91.6673 12.5343 91.6673 13.7498V54.9998M81.3548 100.833V71.0415" stroke="#005BBF" stroke-width="4" stroke-linecap="round" stroke-linejoin="round"/>
<path d="M71.043 79.0625L74.4805 75.625L81.3555 68.75L88.2305 75.625L91.668 79.0625" stroke="#005BBF" stroke-width="4" stroke-linecap="round" stroke-linejoin="round"/>
<path d="M34.8281 45.5391C35.1276 45.5391 35.2773 45.6693 35.2773 45.9297C35.2122 47.6745 35.1341 48.5469 35.043 48.5469C35.043 48.7292 34.8086 48.8464 34.3398 48.8984H34.2617C33.9362 48.8984 33.7734 48.7747 33.7734 48.5273L33.832 48.293C33.832 48.2148 33.5326 47.9219 32.9336 47.4141C32.4648 47.1016 31.8268 46.9453 31.0195 46.9453C30.3164 46.9453 29.6068 47.362 28.8906 48.1953C27.6927 49.3672 27.0938 50.4414 27.0938 51.418V51.4375L27.3086 52.4727C27.3086 52.8242 27.543 53.5599 28.0117 54.6797C28.0117 54.7578 28.2201 55.0443 28.6367 55.5391C28.6758 55.7734 28.8125 55.9948 29.0469 56.2031C29.4245 56.5417 30.4336 56.7109 32.0742 56.7109C32.582 56.7109 33.1615 56.418 33.8125 55.832C34.0078 55.7148 34.1055 55.0638 34.1055 53.8789V53.6445C34.1055 53.5143 33.9688 53.4492 33.6953 53.4492C32.8229 53.3971 32.3867 53.2995 32.3867 53.1562L32.3672 53C32.4453 52.4792 32.5951 52.2188 32.8164 52.2188L34.3398 52.2383L36.1953 52.0625C36.3516 52.1016 36.4297 52.1602 36.4297 52.2383L36.3711 52.8828V53.0391C36.2799 53.3906 36.1172 53.5664 35.8828 53.5664L35.3164 53.5273V53.6055C35.4076 53.6055 35.4531 54.3932 35.4531 55.9688C35.4531 57.7396 35.5117 58.6836 35.6289 58.8008H35.5898L35.5117 58.8203H34.6523C34.5742 58.8203 34.457 58.8529 34.3008 58.918C34.0794 58.918 33.9688 58.7161 33.9688 58.3125C33.9688 58.026 33.9036 57.8828 33.7734 57.8828C33.7083 57.8828 33.4674 58.0456 33.0508 58.3711C32.6471 58.5273 32.3086 58.6055 32.0352 58.6055H31.8984C31.0651 58.6055 30.1797 58.3906 29.2422 57.9609C29.0208 57.7396 28.7344 57.5508 28.3828 57.3945C28.0052 57.0951 27.6992 56.763 27.4648 56.3984C26.9831 55.6823 26.7422 55.2461 26.7422 55.0898C26.4818 54.6471 26.2734 54.0091 26.1172 53.1758L26.1562 51.3594H26.1758L26.3516 51.5352C26.3776 51.5352 26.4036 51.457 26.4297 51.3008C26.4036 51.1445 26.3646 51.0664 26.3125 51.0664C26.2734 51.0664 26.2083 51.0924 26.1172 51.1445H26.0977C26.1107 50.5716 26.2409 49.9857 26.4883 49.3867C26.8529 48.931 27.2891 48.2995 27.7969 47.4922C27.888 47.4271 27.9596 47.3099 28.0117 47.1406C28.181 46.9453 28.7539 46.5872 29.7305 46.0664C29.9388 45.9753 30.362 45.8841 31 45.793H31.0195C31.5013 45.793 32.4193 45.9818 33.7734 46.3594H33.8125C33.8776 46.2943 33.9102 46.2161 33.9102 46.125V46.0273L33.8711 45.8906C33.9883 45.6562 34.3073 45.5391 34.8281 45.5391ZM27.8945 48.957H27.9531C28.4479 48.3581 28.6953 48.026 28.6953 47.9609H28.6367C28.181 48.3776 27.9336 48.7096 27.8945 48.957ZM27.6602 48.1953H27.6992C27.7773 48.1432 27.8294 48.0977 27.8555 48.0586V48H27.8359C27.7188 48.0521 27.6602 48.1172 27.6602 48.1953ZM27.1523 49.2109L27.0938 49.2891V49.3281H27.1328L27.2109 49.2695V49.2109H27.1523ZM36.0781 52.3555L36.0195 52.4141V52.4727L36.0781 52.5117L36.1367 52.4336V52.4141L36.0977 52.3555H36.0781ZM33.9883 56.2227L33.9297 56.2812L33.9688 56.3398H34.0273L34.1055 56.2812L34.0469 56.2227H33.9883ZM32.3867 56.9648C32.3867 57.0039 32.4062 57.0234 32.4453 57.0234C32.5234 57.0234 32.6146 56.9648 32.7188 56.8477V56.8281H32.6797C32.5365 56.8281 32.4388 56.8737 32.3867 56.9648ZM29.2617 56.9062H29.1836V56.9453C29.1836 57.0234 29.3464 57.0885 29.6719 57.1406H29.9062L29.9453 57.082C29.6328 56.9648 29.4049 56.9062 29.2617 56.9062ZM34.2617 57.8828L34.1836 57.9414V58L34.2227 58.0391C34.3008 58.013 34.3398 57.987 34.3398 57.9609V57.9219L34.2617 57.8828ZM32.6211 58.2539V58.3125H32.6406C32.7839 58.3125 32.9401 58.2474 33.1094 58.1172L33.0898 58.0391H32.9922C32.849 58.0391 32.7253 58.1107 32.6211 58.2539ZM37.2695 45.3047L37.3477 45.3242V45.3438L38.1094 45.3047L38.4023 45.3242C39.3008 45.3242 40.1732 45.2201 41.0195 45.0117L41.1367 45.0312V45.0703L41.0586 45.207C41.1758 45.2852 41.3255 45.3242 41.5078 45.3242C41.7422 45.5977 41.8594 45.9883 41.8594 46.4961V46.5547C41.8594 46.8151 41.5469 46.9714 40.9219 47.0234C40.388 47.0234 40.1211 47.1797 40.1211 47.4922V50.1289C40.1211 50.4023 40.056 50.5391 39.9258 50.5391L39.9062 50.5781V50.7734L40.082 50.9688L39.9453 51.2422V51.2617L40.1016 52.1992C40.1016 52.7201 40.1536 53.8008 40.2578 55.4414C40.1927 55.9622 40.1211 56.2617 40.043 56.3398C40.043 56.418 40.1146 56.457 40.2578 56.457H40.3359C40.8698 56.3008 41.4362 56.2227 42.0352 56.2227C42.3477 56.2227 42.5039 56.4049 42.5039 56.7695V56.9453C42.5039 57.5964 42.4323 57.9219 42.2891 57.9219H41.8008L41.5078 58L41.3125 57.8828L37.1523 58C36.9701 58 36.8789 57.707 36.8789 57.1211V56.7109C36.8919 56.6198 36.9115 56.5742 36.9375 56.5742H36.9766C37.0156 56.5742 37.0612 56.6589 37.1133 56.8281H37.1719V56.5938L37.1523 56.418L37.25 56.3789C37.4714 56.3789 37.862 56.418 38.4219 56.4961H38.5C38.5911 56.4961 38.6497 56.444 38.6758 56.3398L38.5977 55.5977L38.6953 54.4062C38.526 49.6276 38.3698 47.2383 38.2266 47.2383L36.5078 47.1406C36.3125 46.9453 36.2148 46.7826 36.2148 46.6523V46.3203L36.2344 45.9297C36.2344 45.6953 36.2279 45.474 36.2148 45.2656L36.293 45.3633H36.3906C36.7031 45.3633 36.9896 45.3568 37.25 45.3438V45.3242L37.2695 45.3047ZM36.7812 46.8477L36.7031 46.9062V46.9453C36.7161 46.9974 36.7812 47.0234 36.8984 47.0234C36.9896 47.0234 37.0417 46.9974 37.0547 46.9453V46.9258C37.0417 46.8737 36.9635 46.8477 36.8203 46.8477H36.7812ZM39.2031 47.5898V47.7656H39.2422C39.3073 47.7656 39.3464 47.668 39.3594 47.4727V47.375H39.3203C39.2422 47.401 39.2031 47.4727 39.2031 47.5898ZM41.8594 57.3945V57.4336H41.918C41.9831 57.4076 42.0352 57.3555 42.0742 57.2773V57.2578L42.0156 57.2188C41.9115 57.2578 41.8594 57.3164 41.8594 57.3945ZM38.5 45.9297H38.2852V45.9492L38.3242 45.9883H38.4609L38.5 45.9492V45.9297ZM40.2383 56.9844L40.1406 57.0625V57.082L40.2383 57.1211L40.3164 57.043L40.2578 56.9844H40.2383ZM40.082 50.7148L40.1211 50.6758L40.1797 50.7148L40.1211 50.7734L40.082 50.7148ZM38.9688 47.6289L38.9102 47.707V47.7266L38.9883 47.6289H38.9688ZM48.8906 51.0859H48.9883C49.0664 51.0859 49.1445 51.6003 49.2227 52.6289H49.2422C49.2422 52.7721 48.5781 52.8893 47.25 52.9805C45.7135 53.2799 44.7565 53.4297 44.3789 53.4297V53.3906C44.3789 53.2865 44.9193 53.1628 46 53.0195C46.4818 52.9023 46.7227 52.8177 46.7227 52.7656V52.7461H46.5273C44.9909 52.8372 44.2227 53.0521 44.2227 53.3906L44.0664 53.4688C43.6237 53.4688 43.4023 53.0065 43.4023 52.082C43.4023 51.8346 43.9102 51.6589 44.9258 51.5547C44.9258 51.5156 44.9909 51.4961 45.1211 51.4961L45.5117 51.5742H45.707L48.8906 51.0859ZM48.5 51.418L48.3828 51.4375V51.4961H48.5586L48.6562 51.457V51.418H48.5ZM47.5234 51.6523H47.7578C47.888 51.6523 47.9596 51.6263 47.9727 51.5742V51.5547H47.9336C47.6602 51.5807 47.5234 51.6133 47.5234 51.6523ZM46.4883 51.8477V51.8867C46.6315 51.8867 46.7096 51.8477 46.7227 51.7695H46.625C46.5339 51.7695 46.4883 51.7956 46.4883 51.8477ZM47.7383 52.0625H48.168C48.5846 52.0365 48.8125 51.9779 48.8516 51.8867V51.8477L48.7539 51.8086C48.0768 51.8997 47.7383 51.9844 47.7383 52.0625ZM45.5508 52.0039V52.082H45.5703C45.8438 52.082 46.0521 52.0299 46.1953 51.9258V51.8867H46.1562C46 51.8867 45.7982 51.9258 45.5508 52.0039ZM43.8125 52.0039L43.7344 52.082V52.3359L43.7734 52.375H43.8125C43.8516 52.375 43.8776 52.2904 43.8906 52.1211V52.0625L43.8516 52.0039H43.8125ZM44.3789 52.0039L44.3203 52.082V52.1211H44.418L44.457 52.0625V52.0039H44.3789ZM47.3672 52.082H47.3281V52.1211H47.4062L47.3672 52.082ZM47.1133 52.668V52.6875H47.1523C48.3112 52.6484 48.8906 52.5964 48.8906 52.5312V52.4922C48.8646 52.4531 48.8255 52.4141 48.7734 52.375H48.7539C48.2982 52.375 47.7513 52.4727 47.1133 52.668ZM43.7734 52.5508L43.7344 52.6094V52.6484H43.7734L43.832 52.6094V52.5508H43.7734ZM51.8789 47.3555C53.4805 47.3555 54.2812 47.4206 54.2812 47.5508C54.2812 47.6159 53.9753 47.6484 53.3633 47.6484L53.3242 47.707C53.3242 47.7331 53.6042 47.7526 54.1641 47.7656L54.457 47.9805L54.2227 48.4102L55.6875 50.8906L55.7656 50.9297C55.9089 50.8255 56.2474 50.3828 56.7812 49.6016C56.9766 49.4193 57.0872 49.276 57.1133 49.1719C57.2174 49.1719 57.3802 49.0026 57.6016 48.6641C57.6016 48.4036 57.6992 48.1823 57.8945 48L57.9531 48.0586C57.9531 48.1497 57.901 48.2669 57.7969 48.4102V48.4297H57.8359C58.0964 48.1693 58.2266 47.987 58.2266 47.8828V47.7461L58.207 47.7266C58.207 47.6094 58.3568 47.5378 58.6562 47.5117H59.1836C61.0065 47.5898 61.918 47.7331 61.918 47.9414V48.3125L61.8398 48.4102H61.3516L61.8984 48.6055L61.918 48.7031V48.9375L61.8398 48.9961H61.7031C61.1953 49.0091 60.9414 49.0482 60.9414 49.1133V49.1328C61.5794 49.1458 61.8984 49.1849 61.8984 49.25V49.2891L61.7422 49.4258L61.918 49.5234V49.543L61.8594 49.6211C61.2474 49.4909 60.2839 49.4258 58.9688 49.4258C58.4089 50.0247 57.875 50.6562 57.3672 51.3203C56.7943 51.9193 56.5078 52.2578 56.5078 52.3359C56.599 52.5964 56.8659 53.0781 57.3086 53.7812C57.3997 54.0286 57.7383 54.6341 58.3242 55.5977C58.3242 55.7539 58.6497 55.9427 59.3008 56.1641C59.418 56.2422 59.5482 56.2812 59.6914 56.2812L61.0781 56.2031L61.2344 56.4766V56.6914C61.1823 56.7565 61.1562 56.8151 61.1562 56.8672L61.1758 57.0234C61.2018 57.1146 61.2083 57.2383 61.1953 57.3945C61.1823 57.5378 61.1367 57.7266 61.0586 57.9609C60.9674 58.026 60.8828 58.0586 60.8047 58.0586C59.9714 57.9674 59.0273 57.9219 57.9727 57.9219H57.7188L57.4258 57.9805H57.2695L57.1523 57.9609V57.9414C57.2565 57.7982 57.3086 57.6745 57.3086 57.5703L57.2891 57.5508H57.2305L57.0352 57.7266H56.9766C56.8594 57.7005 56.8008 57.3815 56.8008 56.7695C56.8008 56.6393 56.8073 56.4896 56.8203 56.3203C56.8594 56.2812 56.8789 56.2292 56.8789 56.1641C56.4883 55.0573 56.0911 54.263 55.6875 53.7812H55.6094C55.4271 53.8333 55.2057 54.1719 54.9453 54.7969C54.724 55.1224 54.5026 55.526 54.2812 56.0078C54.1641 56.2812 54.0404 56.418 53.9102 56.418L54.125 56.8086L54.3203 57.043L54.2227 57.2969L54.2812 57.4922V57.5508L53.8906 58.0195V58.0391L53.9102 58.2148L53.8516 58.2539L53.2266 58.1758H53.0508C52.9857 58.1758 52.4583 58.1628 51.4688 58.1367C50.7396 58.1107 50.375 58.1562 50.375 58.2734L50.3359 58.3125H50.2578L50.2773 57.9805L50.1797 57.7461C50.2708 57.7461 50.3229 57.4661 50.3359 56.9062C50.388 56.8411 50.4531 56.7956 50.5312 56.7695C50.5312 56.6133 50.5898 56.5352 50.707 56.5352L52.2695 56.2812C52.3607 56.2161 52.4388 56.1055 52.5039 55.9492C52.582 55.9492 52.6992 55.7865 52.8555 55.4609C53.0508 55.2266 53.1549 55.1094 53.168 55.1094C53.2852 55.0833 53.3438 55.0573 53.3438 55.0312V55.0117H53.168L52.9922 54.9922V54.9336C53.1094 54.8424 53.168 54.7318 53.168 54.6016C53.5326 54.0677 53.7799 53.7357 53.9102 53.6055L54.8086 52.3359C54.8086 52.2969 54.6263 52.0169 54.2617 51.4961C53.4674 50.1549 52.9661 49.4193 52.7578 49.2891C52.7578 49.263 52.3151 49.2174 51.4297 49.1523C50.8307 49.1003 50.5312 49.0352 50.5312 48.957C50.5833 48.332 50.6094 47.8698 50.6094 47.5703C50.7526 47.4271 51.1758 47.3555 51.8789 47.3555ZM51.6641 47.6094L51.625 47.6484V47.707H51.8594V47.6875L51.7617 47.6094H51.6641ZM60.375 48.2539H60.3164V48.332L60.6094 48.3711H60.8047V48.3125L60.375 48.2539ZM50.7461 48.3125L50.6875 48.4102C50.6875 48.5013 50.8828 48.5664 51.2734 48.6055H51.332L51.625 48.5469V48.4883C51.625 48.4492 51.332 48.3906 50.7461 48.3125ZM53.3242 48.3125L53.2461 48.4102C53.2721 48.4492 53.3242 48.4688 53.4023 48.4688L53.4414 48.4102L53.3633 48.3125H53.3242ZM53.9102 48.3711H53.793V48.4297C53.8711 48.5469 53.9492 48.6055 54.0273 48.6055V48.4883L53.9102 48.3711ZM58.8125 48.625V48.7031H58.832C58.9362 48.7031 59.0339 48.638 59.125 48.5078V48.4102H59.0469C58.9948 48.4232 58.9167 48.4948 58.8125 48.625ZM52.25 48.6055L52.0938 48.5664L52.0742 48.6055L52.1523 48.6836H52.2305L52.25 48.6055ZM60.1406 48.7422L59.8867 48.7617V48.8008L60.1797 48.8203L60.6094 48.8008V48.7422H60.1406ZM53.2852 49.3867H53.2266V49.4258L53.2852 49.4844H53.3242V49.4258L53.2852 49.3867ZM57.7188 49.7383H57.7578C57.8359 49.6862 57.8815 49.6341 57.8945 49.582L57.875 49.543C57.7708 49.6081 57.7188 49.6732 57.7188 49.7383ZM53.4414 49.6016H53.3633V49.6211C53.3633 49.7253 53.4284 49.8229 53.5586 49.9141H53.5977L53.6367 49.875C53.6367 49.7448 53.5716 49.6536 53.4414 49.6016ZM56.2344 51.7695H56.2539C56.4232 51.6393 56.5078 51.5156 56.5078 51.3984C56.3255 51.5417 56.2344 51.6654 56.2344 51.7695ZM54.2812 53.6641L54.3203 53.6836H54.3398C54.7174 53.2018 54.9062 52.9154 54.9062 52.8242H54.8867C54.6133 53.0586 54.4115 53.3385 54.2812 53.6641ZM53.9102 55.793L53.832 55.8711V55.9297H53.8516L53.9297 55.8516V55.793H53.9102ZM52.6406 56.0664V56.125C52.7448 56.125 52.8164 56.0794 52.8555 55.9883L52.8359 55.9492C52.7188 55.9753 52.6536 56.0143 52.6406 56.0664ZM59.0078 56.2031L58.4023 55.9883L58.3633 56.0078V56.1445C58.3633 56.2096 58.4805 56.2552 58.7148 56.2812H58.9492L59.0078 56.2031ZM57.7969 56.6328L57.7188 56.6914C57.7578 56.7565 57.8099 56.8151 57.875 56.8672H58.0312V56.8477C58.0312 56.7044 57.9531 56.6328 57.7969 56.6328ZM60.4922 56.9062V56.9258H60.668L60.7852 56.9062V56.8672C60.7852 56.8281 60.7591 56.8086 60.707 56.8086C60.5638 56.8477 60.4922 56.8802 60.4922 56.9062ZM58.5977 57.1016H59.2422L59.4766 57.0625V57.043L59.3398 57.0039H58.9492C58.7148 57.0039 58.5977 57.0365 58.5977 57.1016ZM50.6875 57.1602V57.1992C50.7266 57.2904 50.7982 57.3359 50.9023 57.3359L51.5078 57.2578V57.2188C51.5078 57.1536 51.2865 57.1016 50.8438 57.0625C50.7396 57.1016 50.6875 57.1341 50.6875 57.1602ZM58.2266 57.0625H58.1289V57.1211H58.2266V57.0625ZM53.7344 57.6484H53.5977V57.7266H53.793V57.6875L53.7344 57.6484ZM60.6875 57.7461H60.4531V57.8438C60.6094 57.8958 60.7591 57.9219 60.9023 57.9219L60.9219 57.9023V57.8633C60.9219 57.8242 60.8438 57.7852 60.6875 57.7461ZM65.3164 48.0586C65.4596 48.0846 65.5312 48.1042 65.5312 48.1172L65.4531 48.2539V48.2734H65.4922L66.4883 48.2539C67.6211 48.2539 68.3763 48.5404 68.7539 49.1133C69.0534 49.5039 69.2161 49.7318 69.2422 49.7969L69.3203 49.8164C69.4505 49.8164 70.1862 49.4648 71.5273 48.7617C71.7096 48.6706 71.8594 48.625 71.9766 48.625C72.5104 48.625 73.0638 48.8268 73.6367 49.2305C74.7435 50.1029 75.2969 50.8451 75.2969 51.457C75.4141 51.7044 75.6159 53.0391 75.9023 55.4609V55.9883C75.9023 56.1055 75.9349 56.1771 76 56.2031H76.0781C76.1823 56.2031 76.3906 56.151 76.7031 56.0469C76.9115 56.0469 77.0156 56.431 77.0156 57.1992C77.0417 57.5898 77.0547 57.8828 77.0547 58.0781H76.7812C76.2344 58.1693 75.7526 58.2148 75.3359 58.2148L74.7109 58.1367L73.5781 58.1758H73.3828C73.3568 58.1758 73.3438 58.1237 73.3438 58.0195L73.0898 57.7656V57.7461L73.1484 57.5508V57.5117L73.0508 56.9844V56.7305C73.0508 56.5612 73.181 56.4766 73.4414 56.4766C73.9102 56.5286 74.1055 56.3529 74.0273 55.9492C74.0143 54.9336 74.0534 54.1719 74.1445 53.6641V53.625L74.1055 52.4531C74.1055 52.2448 73.9297 52.0039 73.5781 51.7305L73.4219 51.6914H73.2852L73.1289 51.7695C73.1029 51.7695 73.0898 51.7109 73.0898 51.5938C72.7904 51.2031 72.3086 51.0078 71.6445 51.0078C70.7982 51.0859 70.2904 51.3398 70.1211 51.7695C70.0951 51.8867 70.069 52.1927 70.043 52.6875L70.082 53.1367V54.543L70.0625 55.1094C70.0625 55.6953 70.2253 56.0339 70.5508 56.125C70.694 56.151 70.7656 56.1966 70.7656 56.2617C70.6224 56.9128 70.5312 57.2708 70.4922 57.3359L70.0039 57.4336L68.3438 57.2969L68.1484 57.3359C67.9271 57.3359 67.8164 57.0039 67.8164 56.3398V56.2617C67.8164 56.1836 68.0117 56.0859 68.4023 55.9688C68.5065 55.9688 68.5586 55.9167 68.5586 55.8125C68.4935 55.487 68.4609 55.1224 68.4609 54.7188L68.5 52.5703C68.4219 52.2839 68.3828 52.056 68.3828 51.8867C68.3958 51.5612 68.4414 51.3984 68.5195 51.3984L68.6953 51.4961H68.7148V51.457C68.7148 51.1706 68.2721 50.7604 67.3867 50.2266C67.1523 50.1354 66.918 50.0898 66.6836 50.0898C66.319 50.0898 65.9089 50.2526 65.4531 50.5781L65.4336 50.6758V52.2578L65.4922 56.3398L65.5703 56.418H65.6484C65.6875 56.418 65.7135 56.3724 65.7266 56.2812H65.7656C66.1172 56.2812 66.332 56.3724 66.4102 56.5547V56.7109L66.4297 57.1797C66.4557 57.7135 66.319 57.9805 66.0195 57.9805C65.9414 58.0065 65.5898 58.0326 64.9648 58.0586L62.4258 57.9023C62.2956 57.9023 62.1719 57.5052 62.0547 56.7109V56.6914C62.0547 56.5742 62.3216 56.4375 62.8555 56.2812C62.8555 56.1901 63.1159 56.1055 63.6367 56.0273C63.7279 56.0143 63.7734 55.9492 63.7734 55.832L63.9102 51.2617L63.9492 50.1875C63.9492 50.0703 63.8255 50.0117 63.5781 50.0117C63.3307 50.0117 63.0247 50.0443 62.6602 50.1094C62.4388 49.9922 62.3281 49.8685 62.3281 49.7383C62.4323 49.6732 62.4844 49.569 62.4844 49.4258V49.2695C62.4193 48.931 62.3411 48.7617 62.25 48.7617L62.2305 48.7422V48.7031C62.3086 48.651 62.3997 48.5273 62.5039 48.332C63.3763 48.2148 64.3138 48.1237 65.3164 48.0586ZM64.4766 49.8359V50.8125C64.4766 51.0078 64.4375 51.2031 64.3594 51.3984L64.4961 51.5938L64.457 51.9062V52.1016L64.4961 52.1406H64.5156C64.6198 52.1406 64.6784 51.431 64.6914 50.0117V49.9922C64.6914 49.8359 64.6458 49.7318 64.5547 49.6797C64.5026 49.6927 64.4766 49.7448 64.4766 49.8359ZM62.6797 49.4648C62.6797 49.5951 62.7969 49.6602 63.0312 49.6602C63.3307 49.6602 63.6367 49.5625 63.9492 49.3672V49.3086H63.8711C63.0768 49.3086 62.6797 49.3607 62.6797 49.4648ZM65.9219 49.2305V49.25L66.9375 49.1328C67.224 49.1328 67.5169 49.263 67.8164 49.5234H67.875V49.4453C67.7969 49.1719 67.6602 49.0352 67.4648 49.0352H67.2891C66.3906 49.0352 65.9349 49.1003 65.9219 49.2305ZM72.4258 48.8984C72.3477 48.9375 72.3086 48.9701 72.3086 48.9961C72.3086 49.0221 72.4193 49.0677 72.6406 49.1328C72.7578 49.3021 72.901 49.3867 73.0703 49.3867H73.4414V49.3281C73.4414 49.1979 73.1094 49.0547 72.4453 48.8984H72.4258ZM63.3047 57.0039L63.2461 57.0625C63.2461 57.2318 63.474 57.2643 63.9297 57.1602C63.9818 57.2513 64.0534 57.2969 64.1445 57.2969C64.4701 57.2839 64.8086 57.2513 65.1602 57.1992V57.1211L64.6523 57.1016C64.3268 57.1276 63.9362 57.1146 63.4805 57.0625L63.3828 57.0039H63.3047ZM66.4102 49.5234C66.4102 49.5625 66.5924 49.6276 66.957 49.7188C67.2044 49.849 67.4193 49.9141 67.6016 49.9141H67.6211L67.6602 49.8555C67.3607 49.5951 67.0286 49.4648 66.6641 49.4648H66.5469C66.4557 49.4779 66.4102 49.4974 66.4102 49.5234ZM72.8164 50.5195L72.7578 50.5781C73.0443 50.8906 73.3112 51.0469 73.5586 51.0469L73.6172 51.0078V50.9102C73.526 50.793 73.3828 50.6628 73.1875 50.5195H72.8164ZM71.957 49.8164V49.8555C71.9961 49.9206 72.0352 49.9531 72.0742 49.9531C72.6081 49.9531 72.8945 49.9206 72.9336 49.8555C72.8945 49.7383 72.6862 49.6797 72.3086 49.6797H72.2695C72.0742 49.6797 71.9701 49.7253 71.957 49.8164ZM74.5938 53.4297H74.4766L74.4375 53.5078L74.4961 54.25V54.3086L74.5547 54.3867H74.5938L74.6914 54.2891V53.5273L74.5938 53.4297ZM62.6016 56.6133H62.543C62.543 56.7305 62.4909 56.8411 62.3867 56.9453C62.4779 57.388 62.5755 57.6094 62.6797 57.6094H62.7383L62.6211 56.6328L62.6016 56.6133ZM68.8711 53.1953L68.832 53.3711V54.0938L68.8711 54.4453H68.9297C68.9818 54.3281 69.0078 54.1654 69.0078 53.957C68.9818 53.4492 68.9362 53.1953 68.8711 53.1953ZM65.375 48.6836V48.7031L65.4531 48.7422L66.7227 48.5078V48.4688H66.1367C65.6289 48.4688 65.375 48.5404 65.375 48.6836ZM69.4766 50.1289V50.3047L69.5547 50.3633C69.7109 50.3633 69.9128 50.2461 70.1602 50.0117H69.6719C69.5807 50.0117 69.5156 50.0508 69.4766 50.1289ZM65.043 50.5781H65.0039C64.9779 50.7865 64.9648 51.0078 64.9648 51.2422V51.4961L65.0039 51.5938C65.0951 51.5938 65.1406 51.418 65.1406 51.0664V50.9102C65.1406 50.6888 65.1081 50.5781 65.043 50.5781ZM73.8516 50.1289H73.793V50.2461C73.8451 50.4023 73.9688 50.5586 74.1641 50.7148V50.7734H74.3008V50.7344C74.3008 50.5911 74.151 50.3893 73.8516 50.1289ZM70.8242 49.5234V49.5625H70.8438C70.9219 49.5625 71.1432 49.4128 71.5078 49.1133V49.0352C71.0521 49.1784 70.8242 49.3411 70.8242 49.5234ZM74.6328 56.9258V56.9844H74.8867C75.2643 56.9844 75.4531 56.9453 75.4531 56.8672L75.375 56.8281H75.3359C74.8672 56.8281 74.6328 56.8607 74.6328 56.9258ZM73.8516 57.2188V57.2578H74.3594C74.4896 57.2578 74.5677 57.2253 74.5938 57.1602C74.5807 57.1081 74.5286 57.082 74.4375 57.082H74.1445C74.0794 57.082 73.9818 57.1276 73.8516 57.2188ZM74.5352 52.1211L74.7695 52.4727H74.8477V52.3359V52.1797C74.8477 52.1016 74.8281 52.0495 74.7891 52.0234H74.6133C74.5872 52.0234 74.5612 52.056 74.5352 52.1211ZM64.4766 55.8125H64.0664C64.0794 56.0208 64.1055 56.125 64.1445 56.125H64.2031C64.3724 56.125 64.4635 56.0208 64.4766 55.8125ZM63.1094 48.8984L62.7383 48.9375V48.9961L62.7969 49.0352C63.3307 49.0352 63.5977 49.0091 63.5977 48.957L63.5391 48.8984H63.1094ZM62.8945 56.5156L62.9141 56.8086H62.9531C63.0443 56.6784 63.1745 56.5807 63.3438 56.5156V56.457L63.168 56.418H62.9727C62.9206 56.418 62.8945 56.4505 62.8945 56.5156ZM65.4531 57.043L65.375 57.1016C65.375 57.2188 65.4987 57.2839 65.7461 57.2969L65.8438 57.2188V57.1406C65.8438 57.0755 65.7135 57.043 65.4531 57.043ZM65.1602 56.2227L64.7695 55.8906V55.9297C64.7695 56.1901 64.8477 56.3203 65.0039 56.3203H65.1211C65.1471 56.3203 65.1602 56.2878 65.1602 56.2227ZM68.3633 49.8555H68.3438V49.875C68.3438 50.0052 68.4609 50.1224 68.6953 50.2266V50.0117C68.6953 49.9857 68.5846 49.9336 68.3633 49.8555ZM74.2422 51.2617H74.2031V51.3008C74.3073 51.6523 74.4049 51.8281 74.4961 51.8281V51.7891C74.4961 51.6068 74.4115 51.431 74.2422 51.2617ZM67.4648 48.6836H67.3477V48.7422C67.6471 48.8073 67.8359 48.8398 67.9141 48.8398H67.9531V48.8008C67.9531 48.7227 67.7904 48.6836 67.4648 48.6836ZM68.3047 49.3867H68.2656V49.4648C68.3828 49.6471 68.487 49.7643 68.5781 49.8164H68.6367V49.7969C68.5716 49.6406 68.4609 49.5039 68.3047 49.3867ZM65.6484 56.8672L65.1406 56.9062V56.9844H65.5117L65.8047 56.9453V56.8672H65.6484ZM70.2773 49.7578L70.2969 49.7969H70.4141C70.5833 49.7839 70.668 49.7253 70.668 49.6211L70.6094 49.6016C70.4141 49.6406 70.3034 49.6927 70.2773 49.7578ZM75.1992 56.2422V56.2812L75.2578 56.3398H75.3164L75.3945 56.2422V56.1445L75.3555 56.0664H75.2773C75.2253 56.1055 75.1992 56.1641 75.1992 56.2422ZM63.9492 56.6523L63.793 56.6914V56.75L63.9492 56.7695H64.1055L64.2227 56.75V56.6914L64.1055 56.6523H63.9492ZM75.7266 56.9062L75.7461 56.9258H75.8242C75.8893 56.9258 75.9349 56.9062 75.9609 56.8672V56.8477C75.9609 56.7435 75.9414 56.6914 75.9023 56.6914C75.8503 56.6914 75.7917 56.763 75.7266 56.9062ZM63.5195 48.4688L63.5781 48.5469C63.8385 48.5208 63.9688 48.4818 63.9688 48.4297L63.8711 48.4102C63.6367 48.4232 63.5195 48.4427 63.5195 48.4688ZM76.3711 56.4961L76.293 56.5547V56.7891L76.3711 56.8672C76.4102 56.8672 76.4297 56.763 76.4297 56.5547L76.4102 56.4961H76.3711ZM65.2969 57.6094V57.6484L65.3555 57.6875C65.4727 57.6354 65.5638 57.5703 65.6289 57.4922V57.4531C65.5117 57.4531 65.401 57.5052 65.2969 57.6094ZM69.4961 51.2422L69.4766 51.3008C69.5026 51.4049 69.5286 51.457 69.5547 51.457H69.5742L69.6914 51.3594V51.3008C69.6784 51.2617 69.6133 51.2422 69.4961 51.2422ZM65.3555 49.7969V49.8359H65.4336C65.6029 49.8229 65.6875 49.7904 65.6875 49.7383V49.6797H65.5312C65.4141 49.7057 65.3555 49.7448 65.3555 49.7969ZM69.4375 56.0664L69.3594 56.1641L69.418 56.2227H69.5547L69.6328 56.1445V56.125L69.5742 56.0664H69.4375ZM72.3477 49.1914H72.2305V49.25C72.2305 49.2891 72.2956 49.3086 72.4258 49.3086H72.5039L72.543 49.2695C72.5299 49.2174 72.4648 49.1914 72.3477 49.1914ZM65.043 52.1016L65.0039 52.1406V52.2578L65.082 52.3359H65.1211L65.1602 52.2969V52.1992L65.0625 52.1016H65.043ZM65.043 48.2734L65.0039 48.332V48.3906L65.0625 48.4492C65.1536 48.4492 65.1992 48.4036 65.1992 48.3125L65.1797 48.2734H65.043ZM68.0312 49.4844L67.9922 49.5234C67.9922 49.6536 68.0508 49.7188 68.168 49.7188V49.6797C68.168 49.5885 68.1224 49.5234 68.0312 49.4844ZM68.9297 50.8516H68.8906C68.8906 50.9557 68.9427 51.0078 69.0469 51.0078H69.0859V50.9297C69.0729 50.8776 69.0208 50.8516 68.9297 50.8516ZM69.0078 56.9062L68.9492 56.9844V57.0234L69.0664 57.043L69.1836 57.0234V56.9844L69.125 56.9062H69.0078ZM65.9805 56.5156H65.8438V56.6328L65.9805 56.6523L66.0391 56.5742L65.9805 56.5156ZM63.0312 57.1602H62.9922V57.2969L63.0312 57.3555H63.0898V57.2188L63.0312 57.1602ZM74.5547 55.1094L74.4961 55.168V55.2461L74.5352 55.2852H74.5938V55.1094H74.5547ZM65.0039 48.6445L64.9648 48.7031V48.7422L65.0039 48.7812H65.043L65.1211 48.7422L65.082 48.6445H65.0039ZM74.6328 55.6367L74.5547 55.7344V55.7539L74.6328 55.832L74.6914 55.7539V55.7148L74.6328 55.6367ZM65.4336 49.2305L65.3555 49.1914L65.3164 49.2695L65.3555 49.3086H65.375L65.4336 49.2695V49.2305ZM69.5156 55.6562L69.4766 55.7148V55.7734L69.5547 55.793L69.5742 55.7148L69.5547 55.6562H69.5156ZM64.5156 52.2578H64.4961V52.3359L64.5547 52.3945H64.5742V52.2969L64.5156 52.2578ZM64.3594 49.1328L64.3203 49.1914V49.2305H64.3594L64.4375 49.1719V49.1328H64.3594ZM65.043 57.0039H65.082V56.9844C65.069 56.9844 65.056 56.9909 65.043 57.0039ZM78.7539 43.4102L79.0469 43.332L79.8672 43.5469L81.1367 43.4883C81.4622 43.4883 81.625 43.5859 81.625 43.7812C81.5469 44.276 81.5078 44.9336 81.5078 45.7539V48.8203L81.4883 51.7695L81.5078 52.5508L81.4102 56.2617C81.8529 56.3789 82.5234 56.4635 83.4219 56.5156L83.4414 56.5352V56.8086C83.4414 56.8737 83.513 56.9779 83.6562 57.1211C83.513 57.4336 83.3503 57.8958 83.168 58.5078L82.9922 58.6445H82.9336C82.8555 58.5273 82.6927 58.4688 82.4453 58.4688L79.2422 58.0391C78.2786 58.0391 77.7969 57.9805 77.7969 57.8633C77.9531 57.5508 78.0703 57.043 78.1484 56.3398H78.168V56.3203L78.3633 56.3398H78.5586C78.6237 56.3008 78.8125 56.2487 79.125 56.1836C79.2552 56.2487 79.3529 56.2812 79.418 56.2812H79.6523C79.7826 56.2812 79.8477 56.151 79.8477 55.8906C79.8737 55.5781 79.9388 54.1523 80.043 51.6133C79.9518 50.832 79.8737 48.6836 79.8086 45.168C79.7565 45.0768 79.6914 45.0312 79.6133 45.0312L78.7344 45.0898C78.5781 45.0768 78.5 45.0247 78.5 44.9336C78.5521 43.918 78.6367 43.4102 78.7539 43.4102ZM78.9492 43.7812L78.832 43.8203V43.8594C78.832 43.9766 78.8971 44.0352 79.0273 44.0352H79.0859C79.2292 44.0352 79.3724 43.9635 79.5156 43.8203V43.7812H78.9492ZM79.9453 43.7812L79.9062 43.8398L80.0625 43.8789H80.2578L80.3359 43.8203V43.7812H79.9453ZM80.5703 44.543V44.5625L80.6289 44.6211H80.707C80.8242 44.543 80.9674 44.4648 81.1367 44.3867C81.2018 44.2826 81.2344 44.2044 81.2344 44.1523L81.1953 44.1133H81.1367C81.0195 44.1133 80.9023 44.1849 80.7852 44.3281C80.6419 44.3672 80.5703 44.4388 80.5703 44.543ZM78.8516 44.2305L78.7539 44.3281V44.4648L78.832 44.543H79.2227H79.3594V44.4648L79.0078 44.3086L78.8906 44.2305H78.8516ZM80.375 45.8125L80.3359 45.8711V45.9492L80.375 46.0078H80.4141L80.4336 45.9492V45.8711L80.4141 45.8125H80.375ZM80.3359 46.9062L80.2773 46.9648V47.0039H80.375V46.9062H80.3359ZM81.1953 48.2539H81.1367V48.2734L81.2148 48.3711H81.2344V48.3125L81.1953 48.2539ZM81.2344 48.6055L81.1562 48.5469L81.1367 48.9375V49.1719H81.1562C81.2083 49.1719 81.2344 49.0807 81.2344 48.8984V48.6055ZM80.2188 49.0547V49.1328L80.2578 49.1719L80.2969 49.1328V49.0352L80.2773 48.9961C80.2773 48.9831 80.3294 48.944 80.4336 48.8789V48.8203H80.3555C80.2643 48.8724 80.2188 48.9505 80.2188 49.0547ZM81.2148 49.3086H81.1367V49.4648H81.1562L81.2148 49.4258V49.3086ZM80.4922 51.5352V51.5938H80.5312C80.5964 51.5938 80.6289 51.3268 80.6289 50.793C80.6029 50.793 80.5573 51.0404 80.4922 51.5352ZM80.9414 52.4531L80.9023 52.4922L80.8633 53.7227V55.3633L80.9023 56.125L80.9219 56.1445H81.0586C81.1107 56.1445 81.1367 56.0859 81.1367 55.9688C81.1237 53.625 81.0586 52.4531 80.9414 52.4531ZM80.1406 55.3633V55.4414C80.1406 55.5326 80.1667 55.5781 80.2188 55.5781L80.2969 55.4609V55.3242C80.2708 55.168 80.2448 55.0898 80.2188 55.0898C80.1667 55.0898 80.1406 55.181 80.1406 55.3633ZM78.9688 56.6328L78.9297 56.6914C78.9297 56.7956 78.9753 56.8477 79.0664 56.8477H79.0859V56.6914L79.0273 56.6328H78.9688ZM82.8164 56.6328L82.6992 56.6523V56.6914C82.7122 56.7695 82.8229 56.8086 83.0312 56.8086L83.1289 56.7305V56.6523L83.0117 56.6328H82.8164ZM78.4023 56.6914L78.3633 56.75V56.8086L78.4414 56.8477L78.4805 56.7695L78.4609 56.6914H78.4023ZM79.3594 56.9062V56.9258L79.457 56.9453H79.5742L79.6523 56.9062V56.8477H79.5156H79.4961C79.4049 56.8477 79.3594 56.8672 79.3594 56.9062ZM82.8945 57.2188L81.7812 57.1797V57.1992C81.7812 57.2773 82.0026 57.3229 82.4453 57.3359H82.9531L83.0898 57.2969V57.2383L82.8945 57.2188ZM79.2227 57.2383L79.1641 57.3359L79.2031 57.3945H79.4961C79.7044 57.3945 79.8086 57.375 79.8086 57.3359V57.2969C79.6654 57.2578 79.4831 57.2383 79.2617 57.2383H79.2227ZM82.2695 57.7266L82.3477 57.7461H82.7383C82.8555 57.7461 82.9206 57.7266 82.9336 57.6875V57.6289L82.8164 57.6094H82.5234C82.3542 57.6224 82.2695 57.6615 82.2695 57.7266ZM78.168 57.6289L78.1094 57.7266L78.168 57.7461H78.2656L78.3242 57.7266L78.2461 57.6289H78.168ZM82.8359 58.0977H82.7188V58.1758L82.8359 58.2148H82.8945L83.0117 58.1758V58.0977H82.8945H82.8359Z" fill="#9747FF"/>
</svg>
